<svg width="241" height="32" viewBox="0 0 241 32" fill="none" xmlns="http://www.w3.org/2000/svg">
<path d="M226.223 31.099H220.905L220.805 2.08984H240.897L240.913 6.55595H226.139L226.165 14.2999H239.209L239.224 18.5612H226.18L226.223 31.099Z" fill="#211A1E"/>
<path d="M213.982 31.099H194.311L194.211 2.08984H199.53L199.614 26.6329H213.966L213.982 31.099Z" fill="#211A1E"/>
<path d="M186.689 31.099H165.077L164.977 2.08984H186.167L186.182 6.39205H170.268L170.295 14.136H184.731L184.745 18.1924H170.309L170.338 26.7559H186.674L186.689 31.099Z" fill="#211A1E"/>
<path d="M136.005 31.099H130.729L130.629 2.08984H135.905L135.946 13.8492H150.382L150.342 2.08984H155.66L155.76 31.099H150.442L150.397 18.1514H135.961L136.005 31.099Z" fill="#211A1E"/>
<path d="M110.71 32C102.732 32 97.7372 27.9846 97.7152 21.6337H102.865C102.878 25.4852 105.799 27.8207 110.822 27.8207C115.086 27.8207 117.528 26.1408 117.518 23.3136C117.506 19.8718 113.916 19.2572 109.862 18.6426C104.54 17.8641 98.078 16.6759 98.0551 10.0382C98.0366 4.67069 102.372 1.14697 109.801 1.14697C117.315 1.14697 122.014 4.99848 122.035 11.1035H117.054C117.041 7.45688 114.417 5.32626 109.9 5.32626C105.679 5.32626 103.364 7.08812 103.373 9.71042C103.384 13.0293 107.016 13.6439 111.155 14.2585C116.477 15.0779 122.812 16.2252 122.836 22.9448C122.855 28.5172 118.35 32 110.71 32Z" fill="#211A1E"/>
<path d="M59.903 31.0987L59.9015 30.689C61.9681 30.1564 62.0926 29.5418 62.0633 21.0602L62.0264 10.3662C61.9972 1.92565 61.8683 1.27007 59.7981 0.737414L59.7969 0.368652H70.1387C76.6815 0.368652 81.7531 2.17149 81.774 8.23556C81.7948 14.2587 76.4431 16.9219 70.238 16.9219H65.5526L65.5669 21.0602C65.5961 29.5418 65.7249 30.1564 67.9217 30.689L67.9231 31.0987H59.903ZM70.0982 0.860335H65.4971L65.5509 16.4302H70.1097C74.0354 16.4302 78.4227 15.6518 78.3983 8.60432C78.374 1.55688 73.855 0.860335 70.0982 0.860335Z" fill="#211A1E"/>
<path d="M41.3993 31.4676C34.561 31.4676 27.4908 25.2397 27.4588 15.6928C27.4268 6.14602 34.4556 0 41.2938 0C48.1321 0 55.202 6.14602 55.234 15.6928C55.266 25.2397 48.2375 31.4676 41.3993 31.4676ZM41.3976 30.9759C46.8429 30.9759 51.4288 26.4689 51.3927 15.6928C51.3566 4.91682 46.6985 0.491683 41.2955 0.491683C35.8924 0.491683 31.264 4.91682 31.3001 15.6928C31.3362 26.4689 35.9523 30.9759 41.3976 30.9759Z" fill="#211A1E"/>
<path d="M8.59058 31.0987L8.58917 30.689C10.6556 30.1154 10.7802 29.5418 10.7509 21.0602L10.6812 0.860335H7.68419C3.63188 0.860335 1.65035 1.55688 0.611044 6.18688H0.0200839L0.636709 1.39299C0.717737 0.409628 0.886441 0.368652 1.4774 0.368652H23.3429C23.9339 0.368652 24.1029 0.409628 24.1907 1.39299L24.8404 6.18688H24.2495C23.1782 1.55688 21.1919 0.860335 17.0551 0.860335H14.1848L14.2545 21.0602C14.2838 29.5418 14.4124 30.1154 16.4827 30.689L16.4841 31.0987H8.59058Z" fill="#211A1E"/>
</svg>
